<svg xmlns="http://www.w3.org/2000/svg" viewBox="0 0 1000 925">
<path fill="#FFFFFF" d="M110.2 0C110.2 0 140.6 0 140.6 0C140.6 0 140.6 1.6 140.6 1.6C140.6 1.6 159.7 3.2 159.7 3.2C159.7 3.2 159.7 4.8 159.7 4.8C159.7 4.8 166.1 4.8 166.1 4.8C166.1 4.8 166.1 6.4 166.1 6.4C166.1 6.4 175.7 8 175.7 8C175.7 8 175.7 9.6 175.7 9.6C175.7 9.6 178.9 9.6 178.9 9.6C178.9 9.6 178.9 11.2 178.9 11.2C178.9 11.2 183.7 11.2 183.7 11.2C183.7 11.2 183.7 12.8 183.7 12.8C183.7 12.8 193.3 16 193.3 16C193.3 16 194.9 19.2 194.9 19.2C194.9 19.2 199.7 19.7 201.3 20.8C202.9 21.8 204.5 25.6 204.5 25.6C204.5 25.6 207.7 25.6 207.7 25.6C207.7 25.6 209.3 28.8 209.3 28.8C209.3 28.8 212.5 28.8 212.5 28.8C212.5 28.8 220.4 38.3 220.4 38.3C220.4 38.3 223.6 38.3 223.6 38.3C223.6 38.3 228.4 44.7 228.4 44.7C228.4 44.7 231.6 44.7 231.6 44.7C231.6 44.7 238 52.7 238 52.7C238 52.7 241.2 52.7 241.2 52.7C241.2 52.7 246 59.1 246 59.1C246 59.1 249.2 59.1 249.2 59.1C249.2 59.1 255.6 67.1 255.6 67.1C255.6 67.1 258.8 67.1 258.8 67.1C258.8 67.1 263.6 73.5 263.6 73.5C263.6 73.5 266.8 73.5 266.8 73.5C266.8 73.5 273.2 81.5 273.2 81.5C273.2 81.5 276.4 81.5 276.4 81.5C276.4 81.5 282.7 89.5 282.7 89.5C282.7 89.5 285.9 89.5 285.9 89.5C285.9 89.5 289.1 94.2 289.1 94.2C289.1 94.2 292.3 94.2 292.3 94.2C292.3 94.2 300.3 103.8 300.3 103.8C300.3 103.8 303.5 103.8 303.5 103.8C303.5 103.8 308.3 110.2 308.3 110.2C308.3 110.2 311.5 110.2 311.5 110.2C311.5 110.2 319.5 119.8 319.5 119.8C319.5 119.8 322.7 119.8 322.7 119.8C322.7 119.8 325.9 124.6 325.9 124.6C325.9 124.6 329.1 124.6 329.1 124.6C329.1 124.6 337.1 134.2 337.1 134.2C337.1 134.2 340.3 134.2 340.3 134.2C340.3 134.2 345 140.6 345 140.6C345 140.6 348.2 140.6 348.2 140.6C348.2 140.6 354.6 148.6 354.6 148.6C354.6 148.6 357.8 148.6 357.8 148.6C357.8 148.6 362.6 155 362.6 155C362.6 155 365.8 155 365.8 155C365.8 155 365.8 156.5 365.8 156.5C365.8 156.5 367.4 156.5 367.4 156.5C367.4 156.5 372.2 162.9 372.2 162.9C372.2 162.9 375.4 162.9 375.4 162.9C375.4 162.9 381.8 170.9 381.8 170.9C381.8 170.9 385 170.9 385 170.9C385 170.9 385 172.5 385 172.5C385 172.5 396.2 182.1 396.2 182.1C396.2 182.1 396.2 185.3 396.2 185.3C396.2 185.3 405.8 193.3 405.8 193.3C405.8 193.3 405.8 196.5 405.8 196.5C405.8 196.5 410.5 199.7 410.5 199.7C410.5 199.7 410.5 202.9 410.5 202.9C410.5 202.9 412.1 202.9 412.1 202.9C412.1 202.9 413.7 207.7 413.7 207.7C413.7 207.7 416.9 209.3 416.9 209.3C416.9 209.3 418.5 215.7 418.5 215.7C418.5 215.7 421.7 217.3 421.7 217.3C421.7 217.3 421.7 220.4 421.7 220.4C421.7 220.4 423.3 220.4 423.3 220.4C423.3 220.4 423.3 223.6 423.3 223.6C423.3 223.6 424.9 223.6 424.9 223.6C424.9 223.6 424.9 226.8 424.9 226.8C424.9 226.8 426.5 226.8 426.5 226.8C426.5 226.8 426.5 230 426.5 230C426.5 230 428.1 230 428.1 230C428.1 230 429.7 239.6 429.7 239.6C429.7 239.6 431.3 239.6 431.3 239.6C431.3 239.6 431.3 242.8 431.3 242.8C431.3 242.8 432.9 242.8 432.9 242.8C432.9 242.8 434.5 252.4 434.5 252.4C434.5 252.4 436.1 252.4 436.1 252.4C436.1 252.4 437.7 266.8 437.7 266.8C437.7 266.8 439.3 266.8 439.3 266.8C439.3 266.8 439.3 278 439.3 278C439.3 278 440.9 278 440.9 278C440.9 278 440.9 627.8 440.9 627.8C440.9 627.8 787.5 627.8 787.5 627.8C787.5 627.8 787.5 629.4 787.5 629.4C787.5 629.4 798.7 629.4 798.7 629.4C798.7 629.4 798.7 631 798.7 631C798.7 631 811.5 632.6 811.5 632.6C811.5 632.6 811.5 634.2 811.5 634.2C811.5 634.2 821.1 635.8 821.1 635.8C821.1 635.8 821.1 637.4 821.1 637.4C821.1 637.4 824.3 637.4 824.3 637.4C824.3 637.4 824.3 639 824.3 639C824.3 639 827.5 639 827.5 639C827.5 639 827.5 640.6 827.5 640.6C827.5 640.6 832.3 640.6 832.3 640.6C832.3 640.6 833.9 643.8 833.9 643.8C833.9 643.8 840.3 645.4 840.3 645.4C840.3 645.4 840.3 647 840.3 647C840.3 647 843.7 647.5 845 648.6C846.4 649.6 848.2 653.4 848.2 653.4C848.2 653.4 851.4 653.4 851.4 653.4C851.4 653.4 851.4 655 851.4 655C851.4 655 872.2 674.1 872.2 674.1C872.2 674.1 872.2 677.3 872.2 677.3C872.2 677.3 883.4 686.9 883.4 686.9C883.4 686.9 883.4 690.1 883.4 690.1C883.4 690.1 891.4 696.5 891.4 696.5C891.4 696.5 891.4 699.7 891.4 699.7C891.4 699.7 904.2 710.9 904.2 710.9C904.2 710.9 904.2 714.1 904.2 714.1C904.2 714.1 905.8 714.1 905.8 714.1C905.8 714.1 905.8 715.7 905.8 715.7C905.8 715.7 913.7 722 913.7 722C913.7 722 913.7 725.2 913.7 725.2C913.7 725.2 923.3 733.2 923.3 733.2C923.3 733.2 923.3 736.4 923.3 736.4C923.3 736.4 924.9 736.4 924.9 736.4C924.9 736.4 924.9 738 924.9 738C924.9 738 931.3 742.8 931.3 742.8C931.3 742.8 931.3 746 931.3 746C931.3 746 940.9 754 940.9 754C940.9 754 940.9 757.2 940.9 757.2C940.9 757.2 953.7 768.4 953.7 768.4C953.7 768.4 953.7 771.6 953.7 771.6C953.7 771.6 955.3 771.6 955.3 771.6C955.3 771.6 955.3 773.2 955.3 773.2C955.3 773.2 960.1 776.4 960.1 776.4C960.1 776.4 960.1 779.6 960.1 779.6C960.1 779.6 969.6 787.5 969.6 787.5C969.6 787.5 969.6 790.7 969.6 790.7C969.6 790.7 977.6 797.1 977.6 797.1C977.6 797.1 977.6 800.3 977.6 800.3C977.6 800.3 984 804.6 985.6 806.7C987.2 808.8 987.2 813.1 987.2 813.1C987.2 813.1 990.4 814.7 990.4 814.7C990.4 814.7 990.4 817.9 990.4 817.9C990.4 817.9 992 817.9 992 817.9C992 817.9 992 821.1 992 821.1C992 821.1 993.6 821.1 993.6 821.1C993.6 821.1 993.6 824.3 993.6 824.3C993.6 824.3 995.2 824.3 995.2 824.3C995.2 824.3 996.8 833.9 996.8 833.9C996.8 833.9 998.4 833.9 998.4 833.9C998.4 833.9 998.4 841.9 998.4 841.9C998.4 841.9 1000 841.9 1000 841.9C1000 841.9 1000 861 1000 861C1000 861 998.4 861 998.4 861C998.4 861 998.4 869 998.4 869C998.4 869 996.8 869 996.8 869C996.8 869 995.2 878.6 995.2 878.6C995.2 878.6 993.6 878.6 993.6 878.6C993.6 878.6 990.4 888.2 990.4 888.2C990.4 888.2 987.2 889.8 987.2 889.8C987.2 889.8 987.2 893 987.2 893C987.2 893 985.6 893 985.6 893C985.6 893 969.6 910.5 969.6 910.5C969.6 910.5 966.5 910.5 966.5 910.5C966.5 910.5 966.5 912.1 966.5 912.1C966.5 912.1 963.3 912.1 963.3 912.1C963.3 912.1 963.3 913.7 963.3 913.7C963.3 913.7 960.1 913.7 960.1 913.7C960.1 913.7 960.1 915.3 960.1 915.3C960.1 915.3 956.9 915.3 956.9 915.3C956.9 915.3 956.9 916.9 956.9 916.9C956.9 916.9 953.7 916.9 953.7 916.9C953.7 916.9 953.7 918.5 953.7 918.5C953.7 918.5 950.5 918.5 950.5 918.5C950.5 918.5 950.5 920.1 950.5 920.1C950.5 920.1 944.1 920.1 944.1 920.1C944.1 920.1 944.1 921.7 944.1 921.7C944.1 921.7 939.3 921.7 939.3 921.7C939.3 921.7 939.3 923.3 939.3 923.3C939.3 923.3 926.5 923.3 926.5 923.3C926.5 923.3 926.5 924.9 926.5 924.9C926.5 924.9 281.2 924.9 281.2 924.9C281.2 924.9 281.2 923.3 281.2 923.3C281.2 923.3 254 921.7 254 921.7C254 921.7 254 920.1 254 920.1C254 920.1 249.2 920.1 249.2 920.1C249.2 920.1 249.2 918.5 249.2 918.5C249.2 918.5 236.4 916.9 236.4 916.9C236.4 916.9 236.4 915.3 236.4 915.3C236.4 915.3 231.6 915.3 231.6 915.3C231.6 915.3 231.6 913.7 231.6 913.7C231.6 913.7 228.4 913.7 228.4 913.7C228.4 913.7 228.4 912.1 228.4 912.1C228.4 912.1 218.8 910.5 218.8 910.5C218.8 910.5 218.8 908.9 218.8 908.9C218.8 908.9 215.7 908.9 215.7 908.9C215.7 908.9 215.7 907.3 215.7 907.3C215.7 907.3 212.5 907.3 212.5 907.3C212.5 907.3 212.5 905.8 212.5 905.8C212.5 905.8 207.7 905.8 207.7 905.8C207.7 905.8 206.1 902.6 206.1 902.6C206.1 902.6 202.9 902.6 202.9 902.6C202.9 902.6 202.9 901 202.9 901C202.9 901 193.3 897.8 193.3 897.8C193.3 897.8 191.7 894.6 191.7 894.6C191.7 894.6 188.5 894.6 188.5 894.6C188.5 894.6 188.5 893 188.5 893C188.5 893 185.3 893 185.3 893C185.3 893 183.7 889.8 183.7 889.8C183.7 889.8 180.5 889.8 180.5 889.8C180.5 889.8 178.9 886.6 178.9 886.6C178.9 886.6 175.7 886.6 175.7 886.6C175.7 886.6 169.3 878.6 169.3 878.6C169.3 878.6 166.1 878.6 166.1 878.6C166.1 878.6 161.3 872.2 161.3 872.2C161.3 872.2 158.1 872.2 158.1 872.2C158.1 872.2 158.1 870.6 158.1 870.6C158.1 870.6 107 821.1 107 821.1C107 821.1 107 817.9 107 817.9C107 817.9 105.4 817.9 105.4 817.9C105.4 817.9 103.8 814.7 103.8 814.7C103.8 814.7 100.6 814.7 100.6 814.7C100.6 814.7 100.6 813.1 100.6 813.1C100.6 813.1 92.7 806.7 92.7 806.7C92.7 806.7 92.7 803.5 92.7 803.5C92.7 803.5 91.1 803.5 91.1 803.5C91.1 803.5 87.9 798.7 87.9 798.7C87.9 798.7 84.7 798.7 84.7 798.7C84.7 798.7 84.7 797.1 84.7 797.1C84.7 797.1 78.3 792.3 78.3 792.3C78.3 792.3 78.3 789.1 78.3 789.1C78.3 789.1 76.7 789.1 76.7 789.1C76.7 789.1 65.5 776.4 65.5 776.4C65.5 776.4 62.3 776.4 62.3 776.4C62.3 776.4 62.3 773.2 62.3 773.2C62.3 773.2 35.1 747.6 35.1 747.6C35.1 747.6 35.1 744.4 35.1 744.4C35.1 744.4 31.4 742.8 30.4 741.2C29.3 739.6 28.8 734.8 28.8 734.8C28.8 734.8 27.2 734.8 27.2 734.8C27.2 734.8 25.6 730 25.6 730C25.6 730 22.4 728.4 22.4 728.4C22.4 728.4 22.4 725.2 22.4 725.2C22.4 725.2 20.8 725.2 20.8 725.2C20.8 725.2 20.8 722 20.8 722C20.8 722 19.2 722 19.2 722C19.2 722 19.2 718.8 19.2 718.8C19.2 718.8 17.6 718.8 17.6 718.8C17.6 718.8 17.6 715.7 17.6 715.7C17.6 715.7 14.4 714.1 14.4 714.1C14.4 714.1 14.4 709.3 14.4 709.3C14.4 709.3 12.8 709.3 12.8 709.3C12.8 709.3 12.8 706.1 12.8 706.1C12.8 706.1 11.2 706.1 11.2 706.1C11.2 706.1 11.2 701.3 11.2 701.3C11.2 701.3 9.6 701.3 9.6 701.3C9.6 701.3 9.6 696.5 9.6 696.5C9.6 696.5 8 696.5 8 696.5C8 696.5 8 691.7 8 691.7C8 691.7 6.4 691.7 6.4 691.7C6.4 691.7 6.4 685.3 6.4 685.3C6.4 685.3 4.8 685.3 4.8 685.3C4.8 685.3 4.8 680.5 4.8 680.5C4.8 680.5 3.2 680.5 3.2 680.5C3.2 680.5 1.6 650.2 1.6 650.2C1.6 650.2 0 650.2 0 650.2C0 650.2 0 631 0 631C0 631 1.6 631 1.6 631C1.6 631 1.6 629.4 1.6 629.4C1.6 629.4 0 629.4 0 629.4C0 629.4 0 594.2 0 594.2C0 594.2 1.6 594.2 1.6 594.2C1.6 594.2 1.6 591.1 1.6 591.1C1.6 591.1 0 591.1 0 591.1C0 591.1 0 401 0 401C0 401 1.6 401 1.6 401C1.6 401 1.6 397.8 1.6 397.8C1.6 397.8 0 397.8 0 397.8C0 397.8 0 353 0 353C0 353 1.6 353 1.6 353C1.6 353 1.6 349.8 1.6 349.8C1.6 349.8 0 349.8 0 349.8C0 349.8 0 225.2 0 225.2C0 225.2 1.6 225.2 1.6 225.2C1.6 225.2 1.6 220.4 1.6 220.4C1.6 220.4 0 220.4 0 220.4C0 220.4 0 166.1 0 166.1C0 166.1 1.6 166.1 1.6 166.1C1.6 166.1 1.6 164.5 1.6 164.5C1.6 164.5 0 164.5 0 164.5C0 164.5 0 116.6 0 116.6C0 116.6 1.6 116.6 1.6 116.6C1.6 116.6 1.6 100.6 1.6 100.6C1.6 100.6 3.2 100.6 3.2 100.6C3.2 100.6 3.2 92.7 3.2 92.7C3.2 92.7 4.8 92.7 4.8 92.7C4.8 92.7 4.8 87.9 4.8 87.9C4.8 87.9 6.4 87.9 6.4 87.9C6.4 87.9 6.4 81.5 6.4 81.5C6.4 81.5 8 81.5 8 81.5C8 81.5 8 78.3 8 78.3C8 78.3 9.6 78.3 9.6 78.3C9.6 78.3 9.6 73.5 9.6 73.5C9.6 73.5 11.2 73.5 11.2 73.5C11.2 73.5 11.2 70.3 11.2 70.3C11.2 70.3 12.8 70.3 12.8 70.3C12.8 70.3 16 60.7 16 60.7C16 60.7 19.2 59.1 19.2 59.1C19.2 59.1 19.2 55.9 19.2 55.9C19.2 55.9 22.4 54.3 22.4 54.3C22.4 54.3 22.4 51.1 22.4 51.1C22.4 51.1 27.2 47.9 27.2 47.9C27.2 47.9 27.2 44.7 27.2 44.7C27.2 44.7 28.8 44.7 28.8 44.7C28.8 44.7 46.3 25.6 46.3 25.6C46.3 25.6 49.5 25.6 49.5 25.6C49.5 25.6 51.1 22.4 51.1 22.4C51.1 22.4 54.3 22.4 54.3 22.4C54.3 22.4 55.9 19.2 55.9 19.2C55.9 19.2 59.1 19.2 59.1 19.2C59.1 19.2 60.7 16 60.7 16C60.7 16 63.9 16 63.9 16C63.9 16 63.9 14.4 63.9 14.4C63.9 14.4 67.1 14.4 67.1 14.4C67.1 14.4 67.1 12.8 67.1 12.8C67.1 12.8 70.3 12.8 70.3 12.8C70.3 12.8 70.3 11.2 70.3 11.2C70.3 11.2 73.5 11.2 73.5 11.2C73.5 11.2 73.5 9.6 73.5 9.6C73.5 9.6 78.3 9.6 78.3 9.6C78.3 9.6 78.3 8 78.3 8C78.3 8 83.1 8 83.1 8C83.1 8 83.1 6.4 83.1 6.4C83.1 6.4 87.9 6.4 87.9 6.4C87.9 6.4 87.9 4.8 87.9 4.8C87.9 4.8 92.7 4.8 92.7 4.8C92.7 4.8 92.7 3.2 92.7 3.2C92.7 3.2 110.2 1.6 110.2 1.6C110.2 1.6 110.2 0 110.2 0Z"></path>
<path fill="#14B8A6" d="M143.8 1.6C143.8 1.6 151.8 1.6 151.8 1.6C151.8 1.6 151.8 3.2 151.8 3.2C151.8 3.2 159.7 3.2 159.7 3.2C159.7 3.2 159.7 4.8 159.7 4.8C159.7 4.8 166.1 4.8 166.1 4.8C166.1 4.8 166.1 6.4 166.1 6.4C166.1 6.4 175.7 8 175.7 8C175.7 8 175.7 9.6 175.7 9.6C175.7 9.6 178.9 9.6 178.9 9.6C178.9 9.6 178.9 11.2 178.9 11.2C178.9 11.2 183.7 11.2 183.7 11.2C183.7 11.2 183.7 12.8 183.7 12.8C183.7 12.8 193.3 16 193.3 16C193.3 16 194.9 19.2 194.9 19.2C194.9 19.2 199.7 19.7 201.3 20.8C202.9 21.8 204.5 25.6 204.5 25.6C204.5 25.6 207.7 25.6 207.7 25.6C207.7 25.6 209.3 28.8 209.3 28.8C209.3 28.8 212.5 28.8 212.5 28.8C212.5 28.8 220.4 38.3 220.4 38.3C220.4 38.3 223.6 38.3 223.6 38.3C223.6 38.3 228.4 44.7 228.4 44.7C228.4 44.7 231.6 44.7 231.6 44.7C231.6 44.7 238 52.7 238 52.7C238 52.7 241.2 52.7 241.2 52.7C241.2 52.7 241.2 54.3 241.2 54.3C241.2 54.3 242.8 54.3 242.8 54.3C242.8 54.3 246 59.1 246 59.1C246 59.1 249.2 59.1 249.2 59.1C249.2 59.1 255.6 67.1 255.6 67.1C255.6 67.1 258.8 67.1 258.8 67.1C258.8 67.1 263.6 73.5 263.6 73.5C263.6 73.5 266.8 73.5 266.8 73.5C266.8 73.5 266.8 75.1 266.8 75.1C266.8 75.1 268.4 75.1 268.4 75.1C268.4 75.1 273.2 81.5 273.2 81.5C273.2 81.5 276.4 81.5 276.4 81.5C276.4 81.5 282.7 89.5 282.7 89.5C282.7 89.5 285.9 89.5 285.9 89.5C285.9 89.5 285.9 91.1 285.9 91.1C285.9 91.1 287.5 91.1 287.5 91.1C287.5 91.1 289.1 94.2 289.1 94.2C289.1 94.2 292.3 94.2 292.3 94.2C292.3 94.2 300.3 103.8 300.3 103.8C300.3 103.8 303.5 103.8 303.5 103.8C303.5 103.8 308.3 110.2 308.3 110.2C308.3 110.2 311.5 110.2 311.5 110.2C311.5 110.2 319.5 119.8 319.5 119.8C319.5 119.8 322.7 119.8 322.7 119.8C322.7 119.8 325.9 124.6 325.9 124.6C325.9 124.6 329.1 124.6 329.1 124.6C329.1 124.6 337.1 134.2 337.1 134.2C337.1 134.2 340.3 134.2 340.3 134.2C340.3 134.2 340.3 135.8 340.3 135.8C340.3 135.8 341.9 135.8 341.9 135.8C341.9 135.8 345 140.6 345 140.6C345 140.6 348.2 140.6 348.2 140.6C348.2 140.6 354.6 148.6 354.6 148.6C354.6 148.6 357.8 148.6 357.8 148.6C357.8 148.6 357.8 150.2 357.8 150.2C357.8 150.2 359.4 150.2 359.4 150.2C359.4 150.2 362.6 155 362.6 155C362.6 155 365.8 155 365.8 155C365.8 155 372.2 162.9 372.2 162.9C372.2 162.9 375.4 162.9 375.4 162.9C375.4 162.9 381.8 170.9 381.8 170.9C381.8 170.9 385 170.9 385 170.9C385 170.9 385 172.5 385 172.5C385 172.5 396.2 182.1 396.2 182.1C396.2 182.1 396.2 185.3 396.2 185.3C396.2 185.3 405.8 193.3 405.8 193.3C405.8 193.3 405.8 196.5 405.8 196.5C405.8 196.5 410.5 199.7 410.5 199.7C410.5 199.7 410.5 202.9 410.5 202.9C410.5 202.9 412.1 202.9 412.1 202.9C412.1 202.9 413.7 207.7 413.7 207.7C413.7 207.7 416.9 209.3 416.9 209.3C416.9 209.3 418.5 215.7 418.5 215.7C418.5 215.7 421.7 217.3 421.7 217.3C421.7 217.3 421.7 220.4 421.7 220.4C421.7 220.4 423.3 220.4 423.3 220.4C423.3 220.4 423.3 223.6 423.3 223.6C423.3 223.6 424.9 223.6 424.9 223.6C424.9 223.6 424.9 226.8 424.9 226.8C424.9 226.8 426.5 226.8 426.5 226.8C426.5 226.8 426.5 230 426.5 230C426.5 230 428.1 230 428.1 230C428.1 230 429.7 239.6 429.7 239.6C429.7 239.6 431.3 239.6 431.3 239.6C431.3 239.6 432.9 247.6 432.9 247.6C432.9 247.6 434.5 247.6 434.5 247.6C434.5 247.6 434.5 252.4 434.5 252.4C434.5 252.4 436.1 252.4 436.1 252.4C436.1 252.4 437.7 266.8 437.7 266.8C437.7 266.8 439.3 266.8 439.3 266.8C439.3 266.8 439.3 278 439.3 278C439.3 278 440.9 278 440.9 278C440.9 278 440.9 627.8 440.9 627.8C440.9 627.8 787.5 627.8 787.5 627.8C787.5 627.8 787.5 629.4 787.5 629.4C787.5 629.4 798.7 629.4 798.7 629.4C798.7 629.4 798.7 631 798.7 631C798.7 631 811.5 632.6 811.5 632.6C811.5 632.6 811.5 634.2 811.5 634.2C811.5 634.2 821.1 635.8 821.1 635.8C821.1 635.8 821.1 637.4 821.1 637.4C821.1 637.4 824.3 637.4 824.3 637.4C824.3 637.4 824.3 639 824.3 639C824.3 639 827.5 639 827.5 639C827.5 639 827.5 640.6 827.5 640.6C827.5 640.6 832.3 640.6 832.3 640.6C832.3 640.6 833.9 643.8 833.9 643.8C833.9 643.8 840.3 645.4 840.3 645.4C840.3 645.4 840.3 647 840.3 647C840.3 647 843.7 647.5 845 648.6C846.4 649.6 848.2 653.4 848.2 653.4C848.2 653.4 851.4 653.4 851.4 653.4C851.4 653.4 851.4 655 851.4 655C851.4 655 872.2 674.1 872.2 674.1C872.2 674.1 872.2 677.3 872.2 677.3C872.2 677.3 883.4 686.9 883.4 686.9C883.4 686.9 883.4 690.1 883.4 690.1C883.4 690.1 891.4 696.5 891.4 696.5C891.4 696.5 891.4 699.7 891.4 699.7C891.4 699.7 904.2 710.9 904.2 710.9C904.2 710.9 904.2 714.1 904.2 714.1C904.2 714.1 905.8 714.1 905.8 714.1C905.8 714.1 905.8 715.7 905.8 715.7C905.8 715.7 913.7 722 913.7 722C913.7 722 913.7 725.2 913.7 725.2C913.7 725.2 923.3 733.2 923.3 733.2C923.3 733.2 923.3 736.4 923.3 736.4C923.3 736.4 924.9 736.4 924.9 736.4C924.9 736.4 924.9 738 924.9 738C924.9 738 931.3 742.8 931.3 742.8C931.3 742.8 931.3 746 931.3 746C931.3 746 940.9 754 940.9 754C940.9 754 940.9 757.2 940.9 757.2C940.9 757.2 953.7 768.4 953.7 768.4C953.7 768.4 953.7 771.6 953.7 771.6C953.7 771.6 955.3 771.6 955.3 771.6C955.3 771.6 955.3 773.2 955.3 773.2C955.3 773.2 960.1 776.4 960.1 776.4C960.1 776.4 960.1 779.6 960.1 779.6C960.1 779.6 969.6 787.5 969.6 787.5C969.6 787.5 969.6 790.7 969.6 790.7C969.6 790.7 977.6 797.1 977.6 797.1C977.6 797.1 977.6 800.3 977.6 800.3C977.6 800.3 984 804.6 985.6 806.7C987.2 808.8 987.2 813.1 987.2 813.1C987.2 813.1 990.4 814.7 990.4 814.7C990.4 814.7 990.4 817.9 990.4 817.9C990.4 817.9 992 817.9 992 817.9C992 817.9 992 821.1 992 821.1C992 821.1 993.6 821.1 993.6 821.1C993.6 821.1 993.6 824.3 993.6 824.3C993.6 824.3 995.2 824.3 995.2 824.3C995.2 824.3 996.8 833.9 996.8 833.9C996.8 833.9 998.4 833.9 998.4 833.9C998.4 833.9 998.4 841.9 998.4 841.9C998.4 841.9 1000 841.9 1000 841.9C1000 841.9 1000 861 1000 861C1000 861 998.4 861 998.4 861C998.4 861 998.4 869 998.4 869C998.4 869 996.8 869 996.8 869C996.8 869 995.2 878.6 995.2 878.6C995.2 878.6 993.6 878.6 993.6 878.6C993.6 878.6 990.4 888.2 990.4 888.2C990.4 888.2 987.2 889.8 987.2 889.8C987.2 889.8 987.2 893 987.2 893C987.2 893 985.6 893 985.6 893C985.6 893 969.6 910.5 969.6 910.5C969.6 910.5 966.5 910.5 966.5 910.5C966.5 910.5 966.5 912.1 966.5 912.1C966.5 912.1 963.3 912.1 963.3 912.1C963.3 912.1 963.3 913.7 963.3 913.7C963.3 913.7 960.1 913.7 960.1 913.7C960.1 913.7 960.1 915.3 960.1 915.3C960.1 915.3 956.9 915.3 956.9 915.3C956.9 915.3 956.9 916.9 956.9 916.9C956.9 916.9 953.7 916.9 953.7 916.9C953.7 916.9 953.7 918.5 953.7 918.5C953.7 918.5 950.5 918.5 950.5 918.5C950.5 918.5 950.5 920.1 950.5 920.1C950.5 920.1 944.1 920.1 944.1 920.1C944.1 920.1 944.1 921.7 944.1 921.7C944.1 921.7 939.3 921.7 939.3 921.7C939.3 921.7 939.3 923.3 939.3 923.3C939.3 923.3 926.5 923.3 926.5 923.3C926.5 923.3 926.5 924.9 926.5 924.9C926.5 924.9 723.6 924.9 723.6 924.9C723.6 924.9 723.6 923.3 723.6 923.3C723.6 923.3 718.8 923.3 718.8 923.3C718.8 923.3 718.8 921.7 718.8 921.7C718.8 921.7 707.7 921.7 707.7 921.7C707.7 921.7 707.7 920.1 707.7 920.1C707.7 920.1 699.7 920.1 699.7 920.1C699.7 920.1 699.7 918.5 699.7 918.5C699.7 918.5 686.9 916.9 686.9 916.9C686.9 916.9 686.9 915.3 686.9 915.3C686.9 915.3 682.1 915.3 682.1 915.3C682.1 915.3 682.1 913.7 682.1 913.7C682.1 913.7 667.7 910.5 667.7 910.5C667.7 910.5 667.7 908.9 667.7 908.9C667.7 908.9 664.5 908.9 664.5 908.9C664.5 908.9 664.5 907.3 664.5 907.3C664.5 907.3 659.7 907.3 659.7 907.3C659.7 907.3 659.7 905.8 659.7 905.8C659.7 905.8 656.5 905.8 656.5 905.8C656.5 905.8 656.5 904.2 656.5 904.2C656.5 904.2 653.4 904.2 653.4 904.2C653.4 904.2 653.4 902.6 653.4 902.6C653.4 902.6 650.2 902.6 650.2 902.6C650.2 902.6 650.2 901 650.2 901C650.2 901 647 901 647 901C647 901 647 899.4 647 899.4C647 899.4 643.8 899.4 643.8 899.4C643.8 899.4 643.8 897.8 643.8 897.8C643.8 897.8 640.6 897.8 640.6 897.8C640.6 897.8 640.6 896.2 640.6 896.2C640.6 896.2 631 893 631 893C631 893 629.4 889.8 629.4 889.8C629.4 889.8 623 888.2 623 888.2C623 888.2 621.4 885 621.4 885C621.4 885 618.2 885 618.2 885C618.2 885 616.6 881.8 616.6 881.8C616.6 881.8 613.4 881.8 613.4 881.8C613.4 881.8 610.2 877 610.2 877C610.2 877 607 877 607 877C607 877 605.4 873.8 605.4 873.8C605.4 873.8 602.2 873.8 602.2 873.8C602.2 873.8 597.4 867.4 597.4 867.4C597.4 867.4 594.2 867.4 594.2 867.4C594.2 867.4 584.7 856.2 584.7 856.2C584.7 856.2 581.5 856.2 581.5 856.2C581.5 856.2 581.5 854.6 581.5 854.6C581.5 854.6 559.1 833.9 559.1 833.9C559.1 833.9 559.1 830.7 559.1 830.7C559.1 830.7 544.7 817.9 544.7 817.9C544.7 817.9 544.7 814.7 544.7 814.7C544.7 814.7 535.1 806.7 535.1 806.7C535.1 806.7 535.1 803.5 535.1 803.5C535.1 803.5 520.8 790.7 520.8 790.7C520.8 790.7 520.8 787.5 520.8 787.5C520.8 787.5 511.2 779.6 511.2 779.6C511.2 779.6 511.2 776.4 511.2 776.4C511.2 776.4 501.6 768.4 501.6 768.4C501.6 768.4 501.6 765.2 501.6 765.2C501.6 765.2 490.4 755.6 490.4 755.6C490.4 755.6 490.4 752.4 490.4 752.4C490.4 752.4 479.2 742.8 479.2 742.8C479.2 742.8 479.2 739.6 479.2 739.6C479.2 739.6 468.1 730 468.1 730C468.1 730 468.1 726.8 468.1 726.8C468.1 726.8 455.3 715.7 455.3 715.7C455.3 715.7 455.3 712.5 455.3 712.5C455.3 712.5 453.7 712.5 453.7 712.5C453.7 712.5 453.7 710.9 453.7 710.9C453.7 710.9 439.3 698.1 439.3 698.1C439.3 698.1 439.3 694.9 439.3 694.9C439.3 694.9 437.7 694.9 437.7 694.9C437.7 694.9 423.3 678.9 423.3 678.9C423.3 678.9 420.1 678.9 420.1 678.9C420.1 678.9 412.1 669.3 412.1 669.3C412.1 669.3 408.9 669.3 408.9 669.3C408.9 669.3 408.9 667.7 408.9 667.7C408.9 667.7 407.3 667.7 407.3 667.7C407.3 667.7 404.2 662.9 404.2 662.9C404.2 662.9 401 662.9 401 662.9C401 662.9 396.2 656.5 396.2 656.5C396.2 656.5 393 656.5 393 656.5C393 656.5 391.4 653.4 391.4 653.4C391.4 653.4 388.2 653.4 388.2 653.4C388.2 653.4 386.6 650.2 386.6 650.2C386.6 650.2 383.4 650.2 383.4 650.2C383.4 650.2 383.4 648.6 383.4 648.6C383.4 648.6 378.6 647 378.6 647C378.6 647 377 643.8 377 643.8C377 643.8 367.4 640.6 367.4 640.6C367.4 640.6 365.8 637.4 365.8 637.4C365.8 637.4 359.4 635.8 359.4 635.8C359.4 635.8 357.8 632.6 357.8 632.6C357.8 632.6 354.6 632.6 354.6 632.6C354.6 632.6 354.6 631 354.6 631C354.6 631 351.4 631 351.4 631C351.4 631 351.4 629.4 351.4 629.4C351.4 629.4 348.2 629.4 348.2 629.4C348.2 629.4 348.2 627.8 348.2 627.8C348.2 627.8 345 627.8 345 627.8C345 627.8 345 626.2 345 626.2C345 626.2 341.9 626.2 341.9 626.2C341.9 626.2 341.9 624.6 341.9 624.6C341.9 624.6 338.7 624.6 338.7 624.6C338.7 624.6 338.7 623 338.7 623C338.7 623 335.5 623 335.5 623C335.5 623 335.5 621.4 335.5 621.4C335.5 621.4 332.3 621.4 332.3 621.4C332.3 621.4 332.3 619.8 332.3 619.8C332.3 619.8 329.1 619.8 329.1 619.8C329.1 619.8 329.1 618.2 329.1 618.2C329.1 618.2 325.9 618.2 325.9 618.2C325.9 618.2 325.9 616.6 325.9 616.6C325.9 616.6 322.7 616.6 322.7 616.6C322.7 616.6 322.7 615 322.7 615C322.7 615 319.5 615 319.5 615C319.5 615 319.5 613.4 319.5 613.4C319.5 613.4 316.3 613.4 316.3 613.4C316.3 613.4 316.3 611.8 316.3 611.8C316.3 611.8 313.1 611.8 313.1 611.8C313.1 611.8 313.1 610.2 313.1 610.2C313.1 610.2 309.9 610.2 309.9 610.2C309.9 610.2 309.9 608.6 309.9 608.6C309.9 608.6 306.7 608.6 306.7 608.6C306.7 608.6 306.7 607 306.7 607C306.7 607 303.5 607 303.5 607C303.5 607 303.5 605.4 303.5 605.4C303.5 605.4 300.3 605.4 300.3 605.4C300.3 605.4 300.3 603.8 300.3 603.8C300.3 603.8 297.1 603.8 297.1 603.8C297.1 603.8 297.1 602.2 297.1 602.2C297.1 602.2 293.9 602.2 293.9 602.2C293.9 602.2 293.9 600.6 293.9 600.6C293.9 600.6 290.7 600.6 290.7 600.6C290.7 600.6 290.7 599 290.7 599C290.7 599 287.5 599 287.5 599C287.5 599 287.5 597.4 287.5 597.4C287.5 597.4 284.3 597.4 284.3 597.4C284.3 597.4 284.3 595.8 284.3 595.8C284.3 595.8 274.8 592.7 274.8 592.7C274.8 592.7 273.2 589.5 273.2 589.5C273.2 589.5 263.6 586.3 263.6 586.3C263.6 586.3 262 583.1 262 583.1C262 583.1 255.6 581.5 255.6 581.5C255.6 581.5 254 578.3 254 578.3C254 578.3 250.8 578.3 250.8 578.3C250.8 578.3 249.2 575.1 249.2 575.1C249.2 575.1 246 575.1 246 575.1C246 575.1 244.4 571.9 244.4 571.9C244.4 571.9 241.2 571.9 241.2 571.9C241.2 571.9 239.6 568.7 239.6 568.7C239.6 568.7 236.4 568.7 236.4 568.7C236.4 568.7 236.4 567.1 236.4 567.1C236.4 567.1 234.8 567.1 234.8 567.1C234.8 567.1 231.6 562.3 231.6 562.3C231.6 562.3 228.4 562.3 228.4 562.3C228.4 562.3 225.2 557.5 225.2 557.5C225.2 557.5 222 557.5 222 557.5C222 557.5 212.5 546.3 212.5 546.3C212.5 546.3 209.3 546.3 209.3 546.3C209.3 546.3 209.3 544.7 209.3 544.7C209.3 544.7 201.3 538.3 201.3 538.3C201.3 538.3 201.3 535.1 201.3 535.1C201.3 535.1 190.1 525.6 190.1 525.6C190.1 525.6 190.1 522.4 190.1 522.4C190.1 522.4 188.5 522.4 188.5 522.4C188.5 522.4 188.5 520.8 188.5 520.8C188.5 520.8 183.7 517.6 183.7 517.6C183.7 517.6 183.7 514.4 183.7 514.4C183.7 514.4 178.9 511.2 178.9 511.2C178.9 511.2 178.9 508 178.9 508C178.9 508 177.3 508 177.3 508C177.3 508 175.7 503.2 175.7 503.2C175.7 503.2 172.5 501.6 172.5 501.6C172.5 501.6 170.9 495.2 170.9 495.2C170.9 495.2 167.7 493.6 167.7 493.6C167.7 493.6 167.7 490.4 167.7 490.4C167.7 490.4 166.1 490.4 166.1 490.4C166.1 490.4 166.1 487.2 166.1 487.2C166.1 487.2 164.5 487.2 164.5 487.2C164.5 487.2 164.5 484 164.5 484C164.5 484 162.9 484 162.9 484C162.9 484 162.9 480.8 162.9 480.8C162.9 480.8 161.3 480.8 161.3 480.8C161.3 480.8 161.3 477.6 161.3 477.6C161.3 477.6 159.7 477.6 159.7 477.6C159.7 477.6 159.7 472.8 159.7 472.8C159.7 472.8 158.1 472.8 158.1 472.8C158.1 472.8 158.1 469.6 158.1 469.6C158.1 469.6 156.5 469.6 156.5 469.6C156.5 469.6 156.5 464.9 156.5 464.9C156.5 464.9 155 464.9 155 464.9C155 464.9 155 460.1 155 460.1C155 460.1 153.4 460.1 153.4 460.1C153.4 460.1 153.4 455.3 153.4 455.3C153.4 455.3 151.8 455.3 151.8 455.3C151.8 455.3 151.8 450.5 151.8 450.5C151.8 450.5 150.2 450.5 150.2 450.5C150.2 450.5 150.2 445.7 150.2 445.7C150.2 445.7 148.6 445.7 148.6 445.7C148.6 445.7 147 428.1 147 428.1C147 428.1 145.4 428.1 145.4 428.1C145.4 428.1 145.4 413.7 145.4 413.7C145.4 413.7 143.8 413.7 143.8 413.7C143.8 413.7 143.8 1.6 143.8 1.6Z"></path>
</svg>